<svg xmlns="http://www.w3.org/2000/svg" width="113" height="103" viewBox="0 0 113 103"><g><g opacity=".5"><path fill="#fff" d="M94.256 39.702a1.667 1.667 0 0 0-2.358-.064L61.624 68.316a7.272 7.272 0 0 1-3.436 1.806c0-.023.006-.045.006-.069V2.118a1.669 1.669 0 1 0-3.337 0v67.935c0 .024.005.046.006.07a7.285 7.285 0 0 1-3.437-1.807L21.154 39.638a1.668 1.668 0 1 0-2.294 2.424l30.27 28.676c2.039 1.932 4.717 2.898 7.396 2.898 2.677 0 5.356-.966 7.394-2.898l30.273-28.676a1.67 1.67 0 0 0 .063-2.36z"/></g><g opacity=".5"><path fill="#fff" d="M111.023 102.92H2.027a1.669 1.669 0 0 1-1.669-1.67V87.363a1.669 1.669 0 1 1 3.338 0v12.22h105.657v-12.22a1.669 1.669 0 1 1 3.34 0v13.889c0 .922-.747 1.669-1.67 1.669z"/></g></g></svg>