<?xml version="1.0" encoding="utf-8"?>
<!-- Generator: Adobe Illustrator 24.2.2, SVG Export Plug-In . SVG Version: 6.00 Build 0)  -->
<svg version="1.1" id="Layer_1" xmlns="http://www.w3.org/2000/svg" xmlns:xlink="http://www.w3.org/1999/xlink" x="0px" y="0px"
	 viewBox="0 0 113 148.1" style="enable-background:new 0 0 113 148.1;" xml:space="preserve">
<style type="text/css">
	.st0{opacity:0.5;}
	.st1{fill:#FFFFFF;}
	.st2{fill:#1F9099;}
</style>
<g class="st0">
	<path class="st1" d="M107,146.9H6c-2.8,0-5.2-2.3-5.2-5.2V29.6c0-0.4,0.2-0.8,0.4-1L27.4,2.3c0.3-0.3,0.7-0.4,1-0.4H107
		c2.8,0,5.2,2.3,5.2,5.2v134.7C112.2,144.5,109.9,146.9,107,146.9z M3.8,30.2v111.5c0,1.2,1,2.2,2.2,2.2H107c1.2,0,2.2-1,2.2-2.2V7
		c0-1.2-1-2.2-2.2-2.2H29.1L3.8,30.2z"/>
</g>
<g class="st0">
	<path class="st1" d="M32.8,34.2C32.8,34.2,32.8,34.2,32.8,34.2L8.4,34.2c-0.8,0-1.5-0.7-1.5-1.5c0-0.8,0.7-1.5,1.5-1.5c0,0,0,0,0,0
		l22.9,0.1l0-22.6c0-0.8,0.7-1.5,1.5-1.5c0,0,0,0,0,0c0.8,0,1.5,0.7,1.5,1.5l0,24c0,0.4-0.2,0.8-0.4,1
		C33.6,34.1,33.2,34.2,32.8,34.2z"/>
</g>
<g>
	<path class="st2" d="M51.7,109.3L24.5,85.6c-0.6-0.5-0.7-1.5-0.1-2.1c0.5-0.6,1.5-0.7,2.1-0.1l24.7,21.5l38.6-54.7
		c0.5-0.7,1.4-0.8,2.1-0.4c0.7,0.5,0.8,1.4,0.4,2.1L51.7,109.3z"/>
</g>
</svg>
