<svg id="Layer_1" xmlns="http://www.w3.org/2000/svg" width="72" height="140"><style>.st0{stroke:#fff}.st0,.st1,.st2,.st3{fill:none;stroke-miterlimit:10}.st1{stroke-linecap:round;stroke:#fff}.st2,.st3{stroke:#125b7f}.st3{stroke-linecap:round}</style><circle class="st0" cx="29.7" cy="30.2" r="3.9"/><path class="st1" d="M27 35c-2.6.9-4.5 3-5.2 5.7-.2.8.4 1.6 1.3 1.6h13.3c.8 0 1.5-.8 1.3-1.6-.7-2.7-2.6-4.8-5.2-5.7"/><circle class="st0" cx="42.6" cy="32.2" r="3.2"/><path class="st1" d="M39.2 42.2c2.6 0 5.3.1 7.9 0 4.4-.1 0-5.2-2.3-6M40.3 36.1c-.8.3-1.5.7-2.2 1.3"/><g><circle class="st2" cx="29.7" cy="100.2" r="3.9"/><path class="st3" d="M27 105c-2.6.9-4.5 3-5.2 5.7-.2.8.4 1.6 1.3 1.6h13.3c.8 0 1.5-.8 1.3-1.6-.7-2.7-2.6-4.8-5.2-5.7"/><circle class="st2" cx="42.6" cy="102.2" r="3.2"/><path class="st3" d="M39.2 112.2c2.6 0 5.3.1 7.9 0 4.4-.1 0-5.2-2.3-6M40.3 106.1c-.8.3-1.5.7-2.2 1.3"/></g></svg>