<svg xmlns="http://www.w3.org/2000/svg" width="72" height="140">
<path d="M43.4 25.6c-3.1 0-5.9-1.3-7.8-3.3-1.9 2-4.7 3.3-7.8 3.3h-1c-.9 1.4-1.4 3.1-1.4 4.9 0 12.2 10.2 16.1 10.2 16.1s10.2-3.9 10.2-16.1c0-1.8-.5-3.4-1.4-4.9h-1z" fill="none" stroke="#fff" stroke-miterlimit="10"/>
<path d="M43.4 95.6c-3.1 0-5.9-1.3-7.8-3.3-1.9 2-4.7 3.3-7.8 3.3h-1c-.9 1.4-1.4 3.1-1.4 4.9 0 12.2 10.2 16.1 10.2 16.1s10.2-3.9 10.2-16.1c0-1.8-.5-3.4-1.4-4.9h-1z" fill="none" stroke="#125b7f" stroke-miterlimit="10"/></svg>