<svg id="Layer_1" xmlns="http://www.w3.org/2000/svg" width="72" height="140"><style>.st0,.st1{fill:none;stroke:#fff;stroke-miterlimit:10}.st1{stroke:#125b7f}</style><path class="st0" d="M44.4 39.4l1.4.1c.8.1 1.5-.4 1.7-1.2l.4-1.8c.2-.8-.3-1.6-1-1.9l-1.3-.5c-.5-.2-.9-.6-1-1.2 0-.2-.1-.3-.1-.5-.1-.5 0-1.1.4-1.5l1-1c.6-.6.6-1.5.1-2.1l-1.2-1.5c-.5-.6-1.4-.8-2.1-.4l-1.2.7c-.5.3-1.1.3-1.6 0-.1-.1-.3-.1-.4-.2-.5-.2-.9-.7-.9-1.3l-.2-1.4c-.1-.8-.8-1.4-1.6-1.4h-1.9c-.8 0-1.5.6-1.6 1.4l-.2 1.4c-.1.6-.4 1-.9 1.3-.2.1-.3.1-.4.2-.5.3-1.1.2-1.6 0L29 26c-.7-.4-1.6-.3-2.1.4l-1.2 1.5c-.5.6-.5 1.5.1 2.1l1 1c.4.4.5 1 .4 1.5 0 .2-.1.3-.1.5-.1.5-.5 1-1 1.2l-1.3.5c-.8.3-1.2 1.1-1 1.9l.4 1.8c.2.8.9 1.3 1.7 1.2l1.4-.1c.6-.1 1.1.2 1.4.6.1.1.2.3.3.4.4.4.5 1 .3 1.5l-.4 1.3c-.3.8.1 1.6.8 2l1.7.8c.7.4 1.6.1 2-.6l.7-1.2c.3-.5.8-.7 1.4-.7h.4c.6 0 1.1.2 1.4.7l.7 1.2c.4.7 1.3.9 2 .6l1.7-.8c.7-.4 1.1-1.2.8-2l-.4-1.3c-.2-.5-.1-1.1.3-1.5.1-.1.2-.2.3-.4.6-.5 1.1-.8 1.7-.7z"/><circle class="st0" cx="35.8" cy="34.6" r="4.4"/><path class="st1" d="M44.4 109.4l1.4.1c.8.1 1.5-.4 1.7-1.2l.4-1.8c.2-.8-.3-1.6-1-1.9l-1.3-.5c-.5-.2-.9-.6-1-1.2 0-.2-.1-.3-.1-.5-.1-.5 0-1.1.4-1.5l1-1c.6-.6.6-1.5.1-2.1l-1.2-1.5c-.5-.6-1.4-.8-2.1-.4l-1.2.7c-.5.3-1.1.3-1.6 0-.1-.1-.3-.1-.4-.2-.5-.2-.9-.7-.9-1.3l-.2-1.4c-.1-.8-.8-1.4-1.6-1.4h-1.9c-.8 0-1.5.6-1.6 1.4l-.2 1.4c-.1.6-.4 1-.9 1.3-.2.1-.3.1-.4.2-.5.3-1.1.2-1.6 0L29 96c-.7-.4-1.6-.3-2.1.4l-1.2 1.5c-.5.6-.5 1.5.1 2.1l1 1c.4.4.5 1 .4 1.5 0 .2-.1.3-.1.5-.1.5-.5 1-1 1.2l-1.3.5c-.8.3-1.2 1.1-1 1.9l.4 1.8c.2.8.9 1.3 1.7 1.2l1.4-.1c.6-.1 1.1.2 1.4.6.1.1.2.3.3.4.4.4.5 1 .3 1.5l-.4 1.3c-.3.8.1 1.6.8 2l1.7.8c.7.4 1.6.1 2-.6l.7-1.2c.3-.5.8-.7 1.4-.7h.4c.6 0 1.1.2 1.4.7l.7 1.2c.4.7 1.3.9 2 .6l1.7-.8c.7-.4 1.1-1.2.8-2l-.4-1.3c-.2-.5-.1-1.1.3-1.5.1-.1.2-.2.3-.4.6-.5 1.1-.8 1.7-.7z"/><circle class="st1" cx="35.8" cy="104.6" r="4.4"/></svg>