<svg width="15.000000000000002" height="15.000000000000002" xmlns="http://www.w3.org/2000/svg">
 <style>.st1{display:inline;fill:#179fa6}</style>

 <g>
  <title>background</title>
  <rect fill="none" id="canvas_background" height="602" width="802" y="-1" x="-1"/>
 </g>
 <g>
  <title>Layer 1</title>
  <style transform="matrix(0.8789063617587125,0,0,0.8789063617587125,0,0) ">.st0{fill:#179fa6}</style>
  <g stroke="null" id="svg_8">
   <path stroke="null" id="svg_5" d="m8.56901,11.91037c0,0.173 -0.173,0.43251 -0.34601,0.43251l-6.22813,0c-0.173,0 -0.34601,-0.173 -0.34601,-0.43251l0,-7.95816c0,-0.0865 0.0865,-0.25951 0.0865,-0.34601l1.29753,-1.47053c0.0865,-0.173 0.173,-0.173 0.25951,-0.173l4.8441,0s0.34601,0.0865 0.43251,0.77852l0,1.81654l0.86502,0l0,-2.16254c0,-0.69201 -0.51901,-1.29753 -1.12452,-1.29753l-5.0171,0c-0.34601,0 -0.60551,0.173 -0.86502,0.34601l-1.29753,1.47053c-0.173,0.25951 -0.34601,0.51901 -0.34601,0.86502l0,8.04466c0,0.77852 0.51901,1.38403 1.12452,1.38403l6.31463,0c0.60551,0 1.12452,-0.60551 1.12452,-1.29753l0,-1.29753l-0.86502,0l0,1.29753l0.0865,0z" class="st0" fill="#629b77"/>
   <path stroke="null" id="svg_6" d="m5.80096,7.58529c0,0.25951 0.173,0.43251 0.43251,0.43251l7.09314,0c0.25951,0 0.43251,-0.173 0.43251,-0.43251s-0.173,-0.43251 -0.34601,-0.43251l-7.09314,0c-0.34601,0 -0.51901,0.173 -0.51901,0.43251z" class="st0"/>
   <path stroke="null" id="svg_7" d="m14.88364,6.72027l-2.50855,-2.50855c-0.173,-0.173 -0.43251,-0.173 -0.60551,0s-0.173,0.43251 0,0.60551l2.50855,2.50855c0.0865,0.0865 0.0865,0.173 0.0865,0.25951c0,0.0865 0,0.173 -0.0865,0.25951l-2.50855,2.50855c-0.173,0.173 -0.173,0.43251 0,0.60551c0.0865,0.0865 0.173,0.0865 0.34601,0.0865s0.25951,0 0.34601,-0.0865l2.50855,-2.50855c0.25951,-0.25951 0.34601,-0.51901 0.34601,-0.86502s-0.173,-0.69201 -0.43251,-0.86502z" class="st0"/>
  </g>
 </g>
</svg>