<svg id="Layer_1" xmlns="http://www.w3.org/2000/svg" viewBox="0 0 30 30"><style>.st1,.st3{display:none;fill:#437590}.st3{display:inline}</style><path class="st1" d="M15.2 7c-4.8 0-8.7 3.7-8.7 8.2s3.9 8.2 8.7 8.2v-.9c-4.1 0-7.5-3.3-7.5-7.3s3.4-7.3 7.5-7.3 7.6 3.4 7.6 7.3c0 2.2-1.6 3.5-2.7 3.5-.7 0-1.1-.4-1.3-1.2v-6h-.9v1.4c-.4-.5-.9-.9-1.4-1.2-.5-.3-1.1-.4-1.7-.4-1.1 0-2 .4-2.8 1.1-.8.7-1.2 1.8-1.2 2.8 0 1 .4 1.9 1.2 2.6.8.8 1.7 1.1 2.8 1.1.6 0 1.2-.1 1.7-.4s1-.6 1.4-1.1v-.1c.2 1.6 1.4 2.2 2.3 2.1 1.8-.1 3.6-1.8 3.6-4.4.1-4.2-3.9-8-8.6-8zm2.4 9.9c-.3.5-.6.8-1.1 1-.5.3-.9.4-1.5.4-.5 0-1-.1-1.4-.4-.5-.3-.8-.6-1.1-1.1-.3-.5-.4-.9-.4-1.5s.1-1 .4-1.5c.3-.5.6-.8 1.1-1.1.5-.3.9-.4 1.4-.4.8 0 1.5.3 2.1.9.6.6.9 1.3.9 2.1 0 .6-.2 1.1-.4 1.6z"/><circle class="st1" cx="13.1" cy="20.2" r=".1"/><path class="st1" d="M12.3 22.9l.5-.9c.4-.7.6-1.4.6-2.2v-.5h-1c-3.3 0-6-2.7-6-6s2.7-6 6-6h7.1c3.3 0 6 2.7 6 6s-2.7 6-6 6h-1.4c-.7 2-2.6 3.5-4.8 3.5l-1 .1zm.1-14.4c-2.7 0-4.9 2.2-4.9 4.9s2.2 4.9 4.9 4.9h1.9l.1.4c.1.4.1.8.1 1.1 0 .6-.1 1.2-.3 1.8 1.4-.4 2.6-1.5 2.9-2.9l.1-.4h2.3c2.7 0 4.9-2.2 4.9-4.9s-2.2-4.9-4.9-4.9h-7.1z"/><path class="st1" d="M20.8 9.5l-2.2-2.2c-.3-.2-.5-.3-.8-.3H11c-.5 0-1 .4-1 1v14c0 .5.4 1 1 1h9c.5 0 1-.4 1-1V10.2c0-.2-.1-.5-.2-.7zM18 8.2l1.8 1.8h-1.3c-.3 0-.5-.2-.5-.5V8.2zM11 22V8h6v1.6c0 .8.6 1.4 1.4 1.4H20v11h-9z"/><circle cx="14.1" cy="18.6" r=".1" fill="#437590"/><path d="M18.9 8.6h-6.6c-2.8 0-5.1 2.3-5.1 5.1s2.3 5.1 5.1 5.1h1.4c.1.3.1.6.1.9 0 .8-.3 1.6-.7 2.3 2 0 3.6-1.4 4.1-3.2h1.7c2.8 0 5.1-2.3 5.1-5.1s-2.3-5.1-5.1-5.1z" fill="none" stroke="#437590" stroke-width=".75" stroke-miterlimit="10"/></svg>