<svg id="Layer_1" xmlns="http://www.w3.org/2000/svg" width="72" height="140"><style>.st0,.st2{fill:none;stroke:#fff;stroke-linecap:round;stroke-miterlimit:10}.st2{stroke:#125b7f}</style><g id="Graph"><path class="st0" d="M46 43.3H27.5c-.8 0-1.5-.8-1.5-1.7V25.7"/><path class="st0" d="M29.2 40l4.2-4.2 2.9 2.9 5.8-5.8"/><path d="M44 33.9v-2.7c0-.2-.1-.3-.3-.3H41c-.3 0-.4.3-.2.5l2.7 2.7c.2.3.5.1.5-.2z" fill="#fff"/></g><g id="Graph_1_"><path class="st2" d="M46 113.3H27.5c-.8 0-1.5-.8-1.5-1.7V95.7"/><path class="st2" d="M29.2 110l4.2-4.2 2.9 2.9 5.8-5.8"/><path d="M44 103.9v-2.7c0-.2-.1-.3-.3-.3H41c-.3 0-.4.3-.2.5l2.7 2.7c.2.3.5.1.5-.2z" fill="#125b7f"/></g></svg>