<svg id="Layer_1" xmlns="http://www.w3.org/2000/svg" width="15" height="12" viewBox="0 0 15 16">
<style>
</style><path fill="none" stroke='#6d6d6d' stroke-miterlimit='10' d="M12.5 11.5h-10c-1.1 0-2-.9-2-2v-7c0-1.1.9-2 2-2h10c1.1 0 2 .9 2 2v7c0 1.1-.9 2-2 2z"/>
<path  fill="none" stroke='#6d6d6d' stroke-miterlimit='10' d="M11.5-1v-.7c0-2.1-1.5-4-3.6-4.2-2.4-.2-4.4 1.7-4.4 4v.9"/>
<path  fill="none" stroke='#6d6d6d' stroke-miterlimit='10' d="M-4.5-1v-.7c0-2.1 1.5-4 3.6-4.2 2.4-.2 4.4 1.7 4.4 4v.9"/>
<path fill="none" stroke='#b2b2b2' stroke-miterlimit='10' d="M7.5 3.5v4"/>
<circle cx="7.5" cy="4.1" r="1.1" fill="#6d6d6d"/></svg>