<svg id="Layer_1" xmlns="http://www.w3.org/2000/svg" width="15" height="10" viewBox="0 0 15 16"> 
<path d="M12.5 11.5h-10c-1.1 0-2-.9-2-2v-7c0-1.1.9-2 2-2h10c1.1 0 2 .9 2 2v7c0 1.1-.9 2-2 2z" fill="#6d6d6d" stroke="#6d6d6d" stroke-miterlimit="10"/>
<path class="st1" fill="none" stroke='#b2b2b2' stroke-miterlimit='10' d="M11.5-1v-.7c0-2.1-1.5-4-3.6-4.2-2.4-.2-4.4 1.7-4.4 4v.9"/>
<path class="st1" d="M-4.5-1v-.7c0-2.1 1.5-4 3.6-4.2 2.4-.2 4.4 1.7 4.4 4v.9"/>
<path d="M7.5 3.5v4" fill="none" stroke="#fff" stroke-miterlimit="10"/>
<circle cx="7.5" cy="4.1" r="1.1" fill="#fff"/></svg>