<svg id="Layer_1" xmlns="http://www.w3.org/2000/svg" viewBox="0 0 32 32"><style>.st0{fill:#fff}</style><path class="st0" d="M17 20.5c0 .2-.2.5-.4.5H9.4c-.2 0-.4-.2-.4-.5V11.3c0-.1.1-.3.1-.4l1.5-1.7c.1-.2.2-.2.3-.2h5.6s.4.1.5.9V12h1V9.5c0-.8-.6-1.5-1.3-1.5h-5.8c-.4 0-.7.2-1 .4l-1.5 1.7c-.2.3-.4.6-.4 1v9.3c0 .9.6 1.6 1.3 1.6h7.3c.7 0 1.3-.7 1.3-1.5V19h-1v1.5z"/><path class="st0" d="M13.8 15.5c0 .3.2.5.5.5h8.2c.3 0 .5-.2.5-.5s-.2-.5-.4-.5h-8.2c-.4 0-.6.2-.6.5z"/><path class="st0" d="M24.3 14.5l-2.9-2.9c-.2-.2-.5-.2-.7 0s-.2.5 0 .7l2.9 2.9c.1.1.1.2.1.3 0 .1 0 .2-.1.3l-2.9 2.9c-.2.2-.2.5 0 .7.1.1.2.1.4.1s.3 0 .4-.1l2.9-2.9c.3-.3.4-.6.4-1s-.2-.8-.5-1z"/></svg>